<mxfile host="app.diagrams.net" agent="Mozilla/5.0 (Windows NT 10.0; Win64; x64) AppleWebKit/537.36 (KHTML, like Gecko) Chrome/131.0.0.0 Safari/537.36 Edg/131.0.0.0" version="24.8.9">
  <diagram name="Page-1" id="dgu3AEq1zzBzy7ww8KCr">
    <mxGraphModel dx="1842" dy="538" grid="1" gridSize="10" guides="1" tooltips="1" connect="1" arrows="1" fold="1" page="1" pageScale="1" pageWidth="850" pageHeight="1100" math="0" shadow="0">
      <root>
        <mxCell id="0" />
        <mxCell id="1" parent="0" />
        <mxCell id="Xb5QQ4uFjzmj5BGMA7Ab-1" value="" style="edgeStyle=orthogonalEdgeStyle;rounded=0;orthogonalLoop=1;jettySize=auto;html=1;" edge="1" parent="1" source="Xb5QQ4uFjzmj5BGMA7Ab-2" target="Xb5QQ4uFjzmj5BGMA7Ab-12">
          <mxGeometry relative="1" as="geometry" />
        </mxCell>
        <mxCell id="Xb5QQ4uFjzmj5BGMA7Ab-2" value="&lt;font data-font-src=&quot;https://fonts.googleapis.com/css?family=Sarabun&quot; face=&quot;Sarabun&quot;&gt;Start&lt;/font&gt;" style="ellipse;whiteSpace=wrap;html=1;" vertex="1" parent="1">
          <mxGeometry x="-510" y="30" width="130" height="30" as="geometry" />
        </mxCell>
        <mxCell id="Xb5QQ4uFjzmj5BGMA7Ab-3" value="&lt;font face=&quot;Sarabun&quot;&gt;End&lt;/font&gt;" style="ellipse;whiteSpace=wrap;html=1;" vertex="1" parent="1">
          <mxGeometry x="-509.99" y="570" width="130" height="30" as="geometry" />
        </mxCell>
        <mxCell id="Xb5QQ4uFjzmj5BGMA7Ab-4" value="" style="edgeStyle=orthogonalEdgeStyle;rounded=0;orthogonalLoop=1;jettySize=auto;html=1;" edge="1" parent="1" source="Xb5QQ4uFjzmj5BGMA7Ab-6" target="Xb5QQ4uFjzmj5BGMA7Ab-8">
          <mxGeometry relative="1" as="geometry" />
        </mxCell>
        <mxCell id="Xb5QQ4uFjzmj5BGMA7Ab-5" value="" style="edgeStyle=orthogonalEdgeStyle;rounded=0;orthogonalLoop=1;jettySize=auto;html=1;" edge="1" parent="1" source="Xb5QQ4uFjzmj5BGMA7Ab-6" target="Xb5QQ4uFjzmj5BGMA7Ab-21">
          <mxGeometry relative="1" as="geometry" />
        </mxCell>
        <mxCell id="Xb5QQ4uFjzmj5BGMA7Ab-6" value="จัดถูกต้องแล้วหรือไม่" style="rhombus;whiteSpace=wrap;html=1;fontFamily=Sarabun;fontSource=https%3A%2F%2Ffonts.googleapis.com%2Fcss%3Ffamily%3DSarabun;" vertex="1" parent="1">
          <mxGeometry x="-503.33000000000004" y="230" width="116.67" height="70" as="geometry" />
        </mxCell>
        <mxCell id="Xb5QQ4uFjzmj5BGMA7Ab-7" style="edgeStyle=orthogonalEdgeStyle;rounded=0;orthogonalLoop=1;jettySize=auto;html=1;entryX=0;entryY=0.5;entryDx=0;entryDy=0;exitX=0;exitY=0.5;exitDx=0;exitDy=0;" edge="1" parent="1" source="Xb5QQ4uFjzmj5BGMA7Ab-8" target="Xb5QQ4uFjzmj5BGMA7Ab-12">
          <mxGeometry relative="1" as="geometry">
            <Array as="points">
              <mxPoint x="-710" y="265" />
              <mxPoint x="-710" y="110" />
            </Array>
          </mxGeometry>
        </mxCell>
        <mxCell id="Xb5QQ4uFjzmj5BGMA7Ab-8" value="แก้ไข" style="rounded=0;whiteSpace=wrap;html=1;" vertex="1" parent="1">
          <mxGeometry x="-690" y="245" width="130" height="40" as="geometry" />
        </mxCell>
        <mxCell id="Xb5QQ4uFjzmj5BGMA7Ab-9" value="F" style="text;html=1;align=center;verticalAlign=middle;resizable=0;points=[];autosize=1;strokeColor=none;fillColor=none;" vertex="1" parent="1">
          <mxGeometry x="-520" y="230" width="30" height="30" as="geometry" />
        </mxCell>
        <mxCell id="Xb5QQ4uFjzmj5BGMA7Ab-10" value="T" style="text;html=1;align=center;verticalAlign=middle;resizable=0;points=[];autosize=1;strokeColor=none;fillColor=none;" vertex="1" parent="1">
          <mxGeometry x="-410" y="295" width="30" height="30" as="geometry" />
        </mxCell>
        <mxCell id="Xb5QQ4uFjzmj5BGMA7Ab-11" style="edgeStyle=orthogonalEdgeStyle;rounded=0;orthogonalLoop=1;jettySize=auto;html=1;entryX=0.5;entryY=0;entryDx=0;entryDy=0;" edge="1" parent="1" source="Xb5QQ4uFjzmj5BGMA7Ab-12">
          <mxGeometry relative="1" as="geometry">
            <mxPoint x="-445" y="160" as="targetPoint" />
          </mxGeometry>
        </mxCell>
        <mxCell id="Xb5QQ4uFjzmj5BGMA7Ab-12" value="จัด Codex โค้ด" style="rounded=0;whiteSpace=wrap;html=1;" vertex="1" parent="1">
          <mxGeometry x="-510" y="90" width="130" height="40" as="geometry" />
        </mxCell>
        <mxCell id="Xb5QQ4uFjzmj5BGMA7Ab-13" value="" style="edgeStyle=orthogonalEdgeStyle;rounded=0;orthogonalLoop=1;jettySize=auto;html=1;" edge="1" parent="1" source="Xb5QQ4uFjzmj5BGMA7Ab-14" target="Xb5QQ4uFjzmj5BGMA7Ab-6">
          <mxGeometry relative="1" as="geometry" />
        </mxCell>
        <mxCell id="Xb5QQ4uFjzmj5BGMA7Ab-14" value="ทดสอบโค้ด" style="rounded=0;whiteSpace=wrap;html=1;" vertex="1" parent="1">
          <mxGeometry x="-510" y="160" width="130" height="40" as="geometry" />
        </mxCell>
        <mxCell id="Xb5QQ4uFjzmj5BGMA7Ab-15" value="" style="edgeStyle=orthogonalEdgeStyle;rounded=0;orthogonalLoop=1;jettySize=auto;html=1;" edge="1" parent="1" source="Xb5QQ4uFjzmj5BGMA7Ab-16" target="Xb5QQ4uFjzmj5BGMA7Ab-3">
          <mxGeometry relative="1" as="geometry" />
        </mxCell>
        <mxCell id="Xb5QQ4uFjzmj5BGMA7Ab-16" value="แสดงผลลัพธ์" style="shape=parallelogram;perimeter=parallelogramPerimeter;whiteSpace=wrap;html=1;fixedSize=1;" vertex="1" parent="1">
          <mxGeometry x="-513.49" y="500" width="137" height="40" as="geometry" />
        </mxCell>
        <mxCell id="Xb5QQ4uFjzmj5BGMA7Ab-17" value="" style="edgeStyle=orthogonalEdgeStyle;rounded=0;orthogonalLoop=1;jettySize=auto;html=1;" edge="1" parent="1" source="Xb5QQ4uFjzmj5BGMA7Ab-19" target="Xb5QQ4uFjzmj5BGMA7Ab-23">
          <mxGeometry relative="1" as="geometry" />
        </mxCell>
        <mxCell id="Xb5QQ4uFjzmj5BGMA7Ab-18" value="" style="edgeStyle=orthogonalEdgeStyle;rounded=0;orthogonalLoop=1;jettySize=auto;html=1;" edge="1" parent="1" source="Xb5QQ4uFjzmj5BGMA7Ab-19" target="Xb5QQ4uFjzmj5BGMA7Ab-16">
          <mxGeometry relative="1" as="geometry" />
        </mxCell>
        <mxCell id="Xb5QQ4uFjzmj5BGMA7Ab-19" value="พบหรือไม่" style="rhombus;whiteSpace=wrap;html=1;fontFamily=Sarabun;fontSource=https%3A%2F%2Ffonts.googleapis.com%2Fcss%3Ffamily%3DSarabun;" vertex="1" parent="1">
          <mxGeometry x="-503.33000000000004" y="400" width="116.67" height="70" as="geometry" />
        </mxCell>
        <mxCell id="Xb5QQ4uFjzmj5BGMA7Ab-20" value="" style="edgeStyle=orthogonalEdgeStyle;rounded=0;orthogonalLoop=1;jettySize=auto;html=1;" edge="1" parent="1" source="Xb5QQ4uFjzmj5BGMA7Ab-21" target="Xb5QQ4uFjzmj5BGMA7Ab-19">
          <mxGeometry relative="1" as="geometry" />
        </mxCell>
        <mxCell id="Xb5QQ4uFjzmj5BGMA7Ab-21" value="ตรวจสอบ Bug ที่เจอ" style="rounded=0;whiteSpace=wrap;html=1;" vertex="1" parent="1">
          <mxGeometry x="-510" y="325" width="130" height="40" as="geometry" />
        </mxCell>
        <mxCell id="Xb5QQ4uFjzmj5BGMA7Ab-22" style="edgeStyle=orthogonalEdgeStyle;rounded=0;orthogonalLoop=1;jettySize=auto;html=1;entryX=0;entryY=0.5;entryDx=0;entryDy=0;" edge="1" parent="1" source="Xb5QQ4uFjzmj5BGMA7Ab-23" target="Xb5QQ4uFjzmj5BGMA7Ab-21">
          <mxGeometry relative="1" as="geometry">
            <Array as="points">
              <mxPoint x="-710" y="435" />
              <mxPoint x="-710" y="345" />
            </Array>
          </mxGeometry>
        </mxCell>
        <mxCell id="Xb5QQ4uFjzmj5BGMA7Ab-23" value="แก้ไข" style="rounded=0;whiteSpace=wrap;html=1;" vertex="1" parent="1">
          <mxGeometry x="-690" y="415" width="130" height="40" as="geometry" />
        </mxCell>
        <mxCell id="Xb5QQ4uFjzmj5BGMA7Ab-24" value="F" style="text;html=1;align=center;verticalAlign=middle;resizable=0;points=[];autosize=1;strokeColor=none;fillColor=none;" vertex="1" parent="1">
          <mxGeometry x="-520" y="400" width="30" height="30" as="geometry" />
        </mxCell>
        <mxCell id="Xb5QQ4uFjzmj5BGMA7Ab-25" value="T" style="text;html=1;align=center;verticalAlign=middle;resizable=0;points=[];autosize=1;strokeColor=none;fillColor=none;" vertex="1" parent="1">
          <mxGeometry x="-440" y="470" width="30" height="30" as="geometry" />
        </mxCell>
      </root>
    </mxGraphModel>
  </diagram>
</mxfile>
